<?xml version="1.0" encoding="utf-8"?>
<!-- Generator: Adobe Illustrator 23.0.2, SVG Export Plug-In . SVG Version: 6.00 Build 0)  -->
<svg version="1.1" id="Ñëîé_1" xmlns="http://www.w3.org/2000/svg" xmlns:xlink="http://www.w3.org/1999/xlink" x="0px" y="0px"
	 viewBox="0 0 1222.77 853.28" style="enable-background:new 0 0 1222.77 853.28;" xml:space="preserve">
<style type="text/css">
	.st0{fill:#68686A;}
</style>
<g>
	<path class="st0" d="M78.86,13.21c-19.01,0-36.26,7.87-48.94,20.59c-0.06,0.06-0.15,0.08-0.21,0.15c-0.03,0.03-0.04,0.07-0.06,0.1
		C16.61,47.26,8.48,65.64,8.46,85.96L7.85,769.94c-0.04,40.14,31.51,72.83,70.33,72.88h0.01l1062.94,0.92c0.02,0,0.03,0,0.05,0
		c38.78,0,70.36-32.62,70.4-72.75l0.61-683.98c0.04-40.14-31.51-72.83-70.33-72.88L78.92,13.21C78.9,13.21,78.88,13.21,78.86,13.21z
		 M42.89,769.96L43.5,85.99c0-4.69,0.91-9.14,2.39-13.29l412.39,380.37c1.6,1.47,3.29,2.82,4.98,4.15L45.51,784.12
		C43.85,779.74,42.89,774.97,42.89,769.96z M1141.18,808.7h-0.02L78.22,807.78h0.01c-1.83,0-3.58-0.3-5.34-0.58l425.83-333.22
		c5.89,1.27,11.92,2,18.02,2l192.89,0.08c6.16,0,12.23-0.73,18.17-2.02l418.01,334.17C1144.28,808.42,1142.77,808.7,1141.18,808.7z
		 M1177.14,86.99l-0.61,683.98c0,5.21-1,10.18-2.8,14.69L763.09,457.36c1.87-1.46,3.71-2.98,5.47-4.61l406.31-378.74
		C1176.27,78.08,1177.15,82.41,1177.14,86.99z M1149.2,50.04L744.72,427.07c-9.72,8.99-22.18,13.94-35.08,13.94l-192.89-0.08
		c-12.77,0-25.14-4.88-34.77-13.68L71.88,49c2.26-0.48,4.59-0.75,6.98-0.75h0.02l1062.94,0.92
		C1144.35,49.17,1146.81,49.49,1149.2,50.04z"/>
</g>
</svg>
