<?xml version="1.0" encoding="utf-8"?>
<!-- Generator: Adobe Illustrator 23.0.2, SVG Export Plug-In . SVG Version: 6.00 Build 0)  -->
<svg version="1.1" id="Ñëîé_1" xmlns="http://www.w3.org/2000/svg" xmlns:xlink="http://www.w3.org/1999/xlink" x="0px" y="0px"
	 viewBox="0 0 549.96 735.32" style="enable-background:new 0 0 549.96 735.32;" xml:space="preserve">
<style type="text/css">
	.st0{fill:#68686A;}
</style>
<g>
	<path class="st0" d="M459.66,690.79l33.74-54.69c21.39-34.69,10.58-80.31-24.11-101.71l-113.83-70.22
		c-16.79-10.37-36.62-13.55-55.82-9.01c-19.2,4.55-35.48,16.31-45.84,33.1c-1.02,1.66-2.58,2.1-3.42,2.21
		c-0.86,0.09-2.54,0.1-4.03-1.3C221.05,465.47,200,438.5,183.8,409c-20.82-37.89-34.69-81.3-41.22-129.04
		c-0.26-1.89,0.63-3.19,1.18-3.79c0.55-0.6,1.68-1.77,3.68-1.53c1.08,0.04,2.14-0.04,3.21-0.05c0.13,0.01,0.25,0.07,0.38,0.07
		c0.44,0,0.89-0.03,1.35-0.09c36.59-1.26,66.95-30.29,68.45-67.39l5.09-126.36c1.57-38.77-28.81-71.58-67.71-73.15
		c-0.19-0.01-0.38-0.01-0.56,0c-0.08,0-0.15,0-0.23,0L94.7,10.04C44.79,8.11,30.36,33.16,27.18,54.23
		C19.14,98.4-16.54,326.11,70.25,470.97c51.34,85.69,123.49,141.91,216.11,200.01l71.6,43.97c11.79,7.27,25.07,11.01,38.59,11.01
		c5.74,0,11.52-0.67,17.25-2.04C433.01,719.35,449.29,707.58,459.66,690.79z M166.09,28.1c23.96,5.11,41.54,26.77,40.52,51.93
		l-5.1,126.36c-0.98,24.25-18.91,43.88-41.93,48.11C155.3,203.84,161.11,71.94,166.09,28.1z M304.09,473.95
		c14.18-3.38,28.82-1,41.23,6.65l113.83,70.22c21.6,13.33,30.6,39.35,23.46,62.55c-27.27-7.1-163.28-86.85-199.95-128.94
		C288.87,479.45,296.12,475.83,304.09,473.95z M409.28,704.9c-13.68,3.25-28.56,1.4-41.19-6.39l-71.54-43.93
		c-90.19-56.58-160.37-111.14-209.73-193.52C3.59,322.12,38.36,100.68,46.22,57.41c6.99-38.48,71.33-28.91,100.52-30.02
		c-5.24,47.64-10.72,177.29-6.35,229.12c-4.13,1.23-7.94,3.41-10.92,6.68c-4.79,5.27-6.99,12.34-6.03,19.39
		c6.85,50.09,21.46,95.76,43.43,135.73c17.19,31.28,39.48,59.86,66.27,84.95c5.33,5,12.54,7.33,19.79,6.34
		c7-0.93,13.12-4.87,16.95-10.77c38.48,40.99,157.62,116.89,204.32,131.58c0,0-30.94,50.16-30.99,50.24
		C435.43,693.29,422.96,701.64,409.28,704.9z"/>
	<path class="st0" d="M381.64,415.18c0.77,0.18,1.53,0.27,2.29,0.27c4.35,0,8.3-2.96,9.38-7.37
		c24.66-101.47-17.66-173.39-116.11-197.34c-5.18-1.28-10.4,1.92-11.66,7.1c-1.26,5.18,1.92,10.4,7.1,11.66
		c87.8,21.36,123.99,83.16,101.91,174.02C373.28,408.69,376.46,413.91,381.64,415.18z"/>
	<path class="st0" d="M444.77,430.53c0.77,0.18,1.53,0.27,2.29,0.27c4.35,0,8.3-2.96,9.38-7.37
		c33.22-136.66-30.95-245.8-163.48-278.03c-5.19-1.28-10.4,1.92-11.66,7.1c-1.26,5.18,1.92,10.4,7.1,11.66
		c121.14,29.46,179.73,129.44,149.28,254.71C436.4,424.05,439.59,429.27,444.77,430.53z"/>
	<path class="st0" d="M513.98,447.36c0.77,0.18,1.53,0.27,2.29,0.27c4.35,0,8.3-2.96,9.38-7.37
		C568.73,263,485.53,121.45,313.68,79.65c-5.19-1.29-10.4,1.92-11.66,7.1c-1.26,5.18,1.92,10.4,7.1,11.66
		c160.45,39.03,238.08,171.43,197.76,337.28C505.62,440.87,508.8,446.1,513.98,447.36z"/>
</g>
</svg>
