<?xml version="1.0" encoding="utf-8"?>
<!-- Generator: Adobe Illustrator 23.0.2, SVG Export Plug-In . SVG Version: 6.00 Build 0)  -->
<svg version="1.1" id="Layer_1" xmlns="http://www.w3.org/2000/svg" xmlns:xlink="http://www.w3.org/1999/xlink" x="0px" y="0px"
	 viewBox="0 0 186.13 166.21" style="enable-background:new 0 0 186.13 166.21;" xml:space="preserve">
<style type="text/css">
	.st0{fill:#68686A;}
	.st1{fill:#FFFFFF;}
</style>
<g>
	<g>
		<path class="st0" d="M9.98,73.65c20.7-20.91,41.54-41.68,62.35-62.49c2.89-2.89,6.36-4.81,10.32-5.81c1.32-0.33,2.67-0.53,4-0.78
			c0.8,0,1.6,0,2.4,0c1.45,0.27,2.93,0.47,4.36,0.83c3.79,0.96,7.14,2.76,9.91,5.52c9,8.94,17.97,17.92,26.94,26.9
			c1.46,1.46,1.54,3.03,0.32,4.22c-1.21,1.18-2.72,1.07-4.21-0.43c-8.66-8.64-17.28-17.31-25.95-25.94
			c-5.75-5.72-13.38-7.11-20.07-3.58c-1.74,0.92-3.39,2.16-4.78,3.55C55.06,36.06,34.62,56.52,14.18,76.98
			c-2.15,2.15-3.22,4.71-2.33,7.79c0.75,2.62,2.6,4.12,5.19,4.68c2.31,0.51,4.43-0.01,6.21-1.62c0.81-0.73,1.59-1.48,2.36-2.25
			c19.89-19.88,39.77-39.76,59.66-59.64c2.35-2.35,3.33-2.36,5.67-0.02c6.99,6.99,13.98,13.98,20.98,20.98
			c0.32,0.32,0.66,0.63,0.95,0.99c0.99,1.24,0.95,2.68-0.09,3.72c-1.04,1.04-2.5,1.1-3.71,0.1c-0.44-0.36-0.83-0.79-1.23-1.19
			c-6.1-6.1-12.21-12.2-18.29-18.32c-0.44-0.44-0.73-1.03-1.14-1.62c-0.76,0.71-1.18,1.07-1.58,1.47
			C67.7,51.16,48.57,70.27,29.49,89.42c-0.61,0.61-1.14,1.63-1.14,2.46c-0.06,21.09-0.05,42.18-0.05,63.27c0,0.39,0,0.79,0,1.31
			c8.76,0,17.41,0,26.34,0c0-0.66,0-1.32,0-1.98c0-14.57,0-29.15,0-43.72c0-6.31,3.17-9.47,9.48-9.47c8.74,0,17.49-0.01,26.23,0
			c5.27,0,8.67,3.38,8.67,8.69c0.02,14.8,0.01,29.61,0.01,44.41c0,0.67,0,1.34,0,2.21c0.8,0,1.41,0,2.03,0c7.2,0,14.4,0,21.61,0
			c0.4,0,2.41,0,2.81,0l-0.07,5.73c-39.78,0-79.56,0-119.35,0l0-5.62c3.54,0.06,10.44,0.02,13.98,0.02c0.89,0,1.78,0,2.69,0
			c0-20.92,0-41.57,0-62.19c-0.15-0.04-0.21-0.08-0.26-0.06C15.05,96.44,7.9,92.9,6.05,84.48C6.05,84.48,4.95,78.99,9.98,73.65z
			 M93.47,156.49c0.03-0.42,0.08-0.69,0.08-0.97c0-15.2,0.01-30.4,0-45.59c0-2.25-0.98-3.15-3.3-3.15c-8.74-0.01-17.48,0-26.22,0
			c-3.08,0-3.89,0.78-3.89,3.81c-0.01,14.74,0,29.48,0,44.22c0,0.54,0.06,1.09,0.1,1.68C71.36,156.49,82.32,156.49,93.47,156.49z"/>
		<path class="st0" d="M181.35,90.04c-0.98,3.76-1.81,7.57-3.07,11.23c-4.93,14.23-11.95,27.5-19.05,40.73
			c-2.59,4.83-5.24,9.62-7.99,14.36c-4.18,7.22-13.96,7.52-18.23,0.42c-9.63-16-18.64-32.34-25.7-49.67
			c-2.3-5.66-4.53-11.39-5.19-17.51c-1.24-11.51,2.26-21.67,10.07-30.06c10.95-11.77,24.62-15.87,40.08-11.57
			c15.35,4.27,24.83,14.75,28.58,30.29c0.36,1.48,0.54,3,0.81,4.51C181.64,82.77,182.22,87.37,181.35,90.04z M140,51.91
			c-7.23,0.12-15.05,2.96-21.49,8.99c-8.21,7.68-12.19,17.16-10.89,28.46c0.72,6.22,3.2,12,5.63,17.73
			c6.83,16.11,15.3,31.38,24.11,46.47c2.51,4.3,7.16,4.28,9.59-0.07c2.84-5.08,5.67-10.17,8.41-15.31
			c6.55-12.29,12.87-24.7,17.56-37.85c1.65-4.62,3.22-9.31,3.23-14.3C176.18,67.21,160.63,51.89,140,51.91z"/>
		<path class="st1" d="M140,51.91c20.63-0.02,36.18,15.31,36.14,34.12c-0.01,4.99-1.58,9.67-3.23,14.3
			c-4.69,13.15-11.01,25.56-17.56,37.85c-2.74,5.14-5.57,10.23-8.41,15.31c-2.43,4.35-7.08,4.37-9.59,0.07
			c-8.81-15.09-17.28-30.36-24.11-46.47c-2.43-5.73-4.91-11.5-5.63-17.73c-1.3-11.3,2.68-20.78,10.89-28.46
			C124.95,54.86,132.77,52.03,140,51.91z M141.83,111.68c14.04,0.02,25.52-11.45,25.52-25.5c-0.01-13.99-11.37-25.4-25.36-25.47
			c-14.03-0.08-25.55,11.35-25.6,25.41C116.33,100.16,127.78,111.66,141.83,111.68z"/>
		<path class="st0" d="M62.84,132.1c0.03-0.74-0.02-1.49,0.12-2.21c0.26-1.41,1.17-2.18,2.61-2.21c1.44-0.03,2.48,0.63,2.65,2.1
			c0.17,1.4,0.19,2.84,0.08,4.25c-0.12,1.58-1.41,2.67-2.84,2.62c-1.47-0.05-2.47-1.14-2.57-2.83c-0.03-0.57-0.01-1.14-0.01-1.7
			C62.87,132.1,62.85,132.1,62.84,132.1z"/>
		<path class="st0" d="M141.83,111.68c-14.05-0.02-25.5-11.52-25.45-25.56c0.05-14.05,11.57-25.49,25.6-25.41
			c14,0.08,25.36,11.49,25.36,25.47C167.35,100.23,155.86,111.71,141.83,111.68z M161.85,86.25c0.03-10.96-8.88-19.96-19.85-20.06
			c-11.01-0.09-20.1,8.91-20.14,19.94c-0.04,11.02,9.01,20.08,20.02,20.06C152.84,106.18,161.82,97.21,161.85,86.25z"/>
		<path class="st1" d="M161.85,86.25c-0.03,10.96-9.01,19.93-19.97,19.94c-11.01,0.02-20.06-9.04-20.02-20.06
			c0.04-11.03,9.13-20.03,20.14-19.94C152.98,66.29,161.89,75.29,161.85,86.25z"/>
	</g>
</g>
</svg>
